<svg xmlns="http://www.w3.org/2000/svg" version="1.1" xmlns:xlink="http://www.w3.org/1999/xlink" xmlns:svgjs="http://svgjs.com/svgjs" width="1440" height="560" preserveAspectRatio="none" viewBox="0 0 1440 560"><g mask="url(&quot;#SvgjsMask1002&quot;)" fill="none"><rect width="1440" height="560" x="0" y="0" fill="#0e2a47"></rect><path d="M689.7 670.96C816.85 643.41 872.91 311.42 1065.02 310.46 1257.14 309.5 1334.65 500.68 1440.35 506.46" stroke="rgba(51,121,194,0.58)" stroke-width="2"></path><path d="M259.24 570.31C451.3 560.31 599.58 219.93 943.97 219.71 1288.36 219.49 1450.26 419.23 1628.7 421.31" stroke="rgba(51,121,194,0.58)" stroke-width="2"></path><path d="M384.45 651.07C517.46 633.23 588.58 328.36 811.36 325.64 1034.15 322.92 1024.82 395.64 1238.28 395.64 1451.73 395.64 1557.04 325.87 1665.19 325.64" stroke="rgba(51,121,194,0.58)" stroke-width="2"></path><path d="M237.89 572.34C441.79 555.7 578.02 146 935.23 144.13 1292.43 142.26 1455.77 261.32 1632.56 261.73" stroke="rgba(51,121,194,0.58)" stroke-width="2"></path><path d="M574.02 609.26C685.54 590.9 627.78 334.73 920.41 318.73 1213.04 302.73 1428.93 70.6 1613.19 66.73" stroke="rgba(51,121,194,0.58)" stroke-width="2"></path></g><defs><mask id="SvgjsMask1002"><rect width="1440" height="560" fill="#ffffff"></rect></mask></defs></svg>